<?xml version="1.0" encoding="UTF-8"?>
<svg xmlns="http://www.w3.org/2000/svg" xmlns:xlink="http://www.w3.org/1999/xlink" width="px" height="px" viewBox="0 0 50 50" version="1.1">
<defs>
<linearGradient id="linear0" gradientUnits="userSpaceOnUse" x1="82" y1="11" x2="18" y2="86.5" gradientTransform="matrix(0.5,0,0,0.5,0,0)">
<stop offset="0" style="stop-color:rgb(18.431373%,72.54902%,49.019608%);stop-opacity:1;"/>
<stop offset="1" style="stop-color:rgb(10.196078%,71.372549%,61.568627%);stop-opacity:1;"/>
</linearGradient>
</defs>
<g id="surface1">
<path style=" stroke:none;fill-rule:nonzero;fill:url(#linear0);" d="M 25 0 C 38.808594 0 50 11.191406 50 25 C 50 38.808594 38.808594 50 25 50 C 11.191406 50 0 38.808594 0 25 C 0 11.191406 11.191406 0 25 0 Z M 25 0 "/>
<path style=" stroke:none;fill-rule:nonzero;fill:rgb(100%,100%,100%);fill-opacity:1;" d="M 23.425781 32.402344 C 23.710938 32.492188 23.996094 32.554688 24.28125 32.589844 C 24.566406 32.609375 24.851562 32.617188 25.136719 32.617188 C 25.851562 32.617188 26.539062 32.519531 27.199219 32.320312 C 27.859375 32.125 28.472656 31.84375 29.046875 31.484375 C 29.632812 31.109375 30.152344 30.660156 30.597656 30.140625 C 31.0625 29.601562 35.203125 24.15625 34.71875 24.777344 L 39 19.066406 C 38.320312 20.035156 35.609375 35.617188 34.71875 36.390625 C 33.84375 37.160156 32.890625 37.816406 31.855469 38.355469 C 30.839844 38.894531 29.757812 39.300781 28.617188 39.570312 C 27.492188 39.855469 26.332031 40 25.136719 40 C 23.121094 40 21.222656 39.621094 19.4375 38.867188 C 17.671875 38.113281 16.121094 37.0625 14.78125 35.714844 C 13.460938 34.367188 12.417969 32.769531 11.652344 30.921875 C 10.882812 29.050781 10.5 27.003906 10.5 24.777344 C 10.5 22.496094 10.882812 20.410156 11.652344 18.527344 C 12.417969 16.640625 13.460938 15.03125 14.78125 13.703125 C 16.121094 12.375 17.671875 11.339844 19.4375 10.605469 C 21.222656 9.867188 23.121094 9.5 25.136719 9.5 C 26.332031 9.5 27.5 9.644531 28.644531 9.929688 C 29.785156 10.21875 30.863281 10.632812 31.882812 11.171875 C 32.917969 11.710938 33.878906 12.375 34.773438 13.164062 C 35.664062 13.9375 36.449219 14.808594 37.125 15.777344 Z M 27.171875 17.234375 C 26.832031 17.105469 26.492188 17.027344 26.15625 16.992188 C 25.832031 16.953125 25.496094 16.9375 25.136719 16.9375 C 24.140625 16.9375 23.195312 17.125 22.300781 17.503906 C 21.425781 17.863281 20.660156 18.382812 20 19.066406 C 19.359375 19.746094 18.847656 20.574219 18.476562 21.542969 C 18.101562 22.496094 17.914062 23.574219 17.914062 24.777344 C 17.914062 25.046875 17.921875 25.351562 17.9375 25.691406 C 17.976562 26.035156 18.019531 26.382812 18.074219 26.742188 C 18.144531 27.085938 18.226562 27.417969 18.3125 27.742188 C 18.402344 28.0625 18.519531 28.351562 18.660156 28.601562 Z M 27.171875 17.234375 "/>
</g>
</svg>
